<?xml version="1.0" standalone="no"?><!DOCTYPE svg PUBLIC "-//W3C//DTD SVG 1.1//EN" "http://www.w3.org/Graphics/SVG/1.1/DTD/svg11.dtd"><svg t="1577182840648" class="icon" viewBox="0 0 1024 1024" version="1.1" xmlns="http://www.w3.org/2000/svg" p-id="7795" xmlns:xlink="http://www.w3.org/1999/xlink" width="32" height="32"><defs><style type="text/css"></style></defs><path d="M568.7296 30.9248a80.40448 80.40448 0 0 0-108.1344 0L23.3472 446.2592c-16.384 14.9504-17.408 40.3456-2.6624 56.7296s40.1408 17.8176 56.7296 3.2768l6.9632-6.5536v433.3568a80.77312 80.77312 0 0 0 80.6912 80.896h234.9056V770.8672c0-15.1552 5.9392-29.4912 16.5888-40.1408s25.1904-16.5888 40.1408-16.5888h110.592c15.1552 0 29.4912 5.9392 40.1408 16.5888s16.5888 25.1904 16.5888 40.1408V1013.76h240.4352a80.77312 80.77312 0 0 0 80.6912-80.896v-428.032c18.0224 16.1792 43.4176 14.9504 58.368-1.6384 7.168-7.9872 10.8544-18.432 10.4448-29.0816-0.6144-10.6496-5.3248-20.6848-13.312-27.8528L568.7296 30.9248z m0 0" p-id="7796" fill="#2c2c2c"></path></svg>